<?xml version="1.0" encoding="utf-8"?>
<!-- Generated by IcoMoon.io -->
<!DOCTYPE svg PUBLIC "-//W3C//DTD SVG 1.1//EN" "http://www.w3.org/Graphics/SVG/1.1/DTD/svg11.dtd">
<svg version="1.1" xmlns="http://www.w3.org/2000/svg" xmlns:xlink="http://www.w3.org/1999/xlink" width="32" height="32" viewBox="0 0 32 32">
<path fill="#444444" d="M0.001 30.375c0-9.583 0-19.166 0-28.749 0.005-0.027 0.011-0.054 0.015-0.081 0.101-0.642 0.443-1.105 1.029-1.386 0.184-0.088 0.381-0.126 0.58-0.157 9.583 0 19.166 0 28.749 0 0.019 0.004 0.037 0.009 0.056 0.012 0.621 0.085 1.080 0.403 1.377 0.957 0.105 0.195 0.153 0.407 0.191 0.622 0 9.605 0 19.21 0 28.816-0.005 0.027-0.011 0.054-0.016 0.081-0.104 0.603-0.426 1.046-0.969 1.329-0.185 0.096-0.386 0.143-0.589 0.181-2.784 0-5.568 0-8.351 0-0-0.022-0.001-0.044-0.001-0.066-0-4.065-0-8.13 0-12.195 0-0.135 0.001-0.136 0.141-0.136 1.279-0 2.557-0 3.836-0 0.030 0 0.061-0.002 0.091 0 0.068 0.005 0.103-0.020 0.106-0.093 0.003-0.063 0.015-0.126 0.024-0.189 0.080-0.616 0.16-1.232 0.239-1.847 0.086-0.671 0.172-1.341 0.259-2.012 0.026-0.2 0.050-0.4 0.077-0.599 0.007-0.054-0.009-0.079-0.065-0.075-0.027 0.002-0.055 0-0.083 0-1.497-0-2.994 0-4.49-0-0.132-0-0.134-0.002-0.134-0.134 0-1.008-0.002-2.016 0.002-3.024 0.001-0.298 0.024-0.596 0.093-0.888 0.125-0.531 0.41-0.934 0.921-1.16 0.405-0.179 0.835-0.231 1.27-0.234 0.851-0.007 1.701-0.003 2.552-0.002 0.068 0 0.115-0.004 0.115-0.095-0.002-1.375-0.002-2.751-0.001-4.126 0-0.065-0.020-0.093-0.087-0.101-0.357-0.041-0.714-0.070-1.072-0.093-0.391-0.025-0.782-0.046-1.174-0.058-0.618-0.019-1.236-0.044-1.854-0.014-0.621 0.030-1.229 0.13-1.821 0.321-1.202 0.387-2.18 1.079-2.879 2.142-0.695 1.056-0.993 2.238-1.022 3.483-0.030 1.278-0.010 2.557-0.012 3.836-0 0.146-0 0.146-0.147 0.146-1.29 0-2.579 0-3.869 0-0.030 0-0.061 0-0.091 0.001-0.040 0.001-0.062 0.020-0.063 0.061-0.001 0.028-0.001 0.055-0.001 0.083-0 1.508-0 3.016-0 4.524 0 0.147 0 0.147 0.144 0.147 1.281 0 2.563-0 3.844 0 0.185 0 0.183-0.025 0.183 0.185-0 4.018-0 8.036-0 12.055 0 0.052 0.001 0.105 0.001 0.157-5.17 0-10.34 0-15.51 0-0.024-0.005-0.048-0.011-0.073-0.015-0.74-0.112-1.325-0.661-1.479-1.389-0.015-0.073-0.026-0.147-0.039-0.22z"></path>
</svg>
