<?xml version="1.0" encoding="utf-8"?>
<!-- Generator: Adobe Illustrator 16.0.0, SVG Export Plug-In . SVG Version: 6.00 Build 0)  -->
<!DOCTYPE svg PUBLIC "-//W3C//DTD SVG 1.1//EN" "http://www.w3.org/Graphics/SVG/1.1/DTD/svg11.dtd">
<svg version="1.1" id="Layer_1" xmlns="http://www.w3.org/2000/svg" xmlns:xlink="http://www.w3.org/1999/xlink" x="0px" y="0px"
	 width="38.635px" height="32px" viewBox="0 0 38.635 32" enable-background="new 0 0 38.635 32" xml:space="preserve">
<path d="M0.655,6.674c0.072,0.267,0.171,0.51,0.297,0.727c0.126,0.217,0.274,0.41,0.443,0.577c0.17,0.167,0.352,0.307,0.547,0.42
	C2.137,8.511,2.34,8.597,2.551,8.655C2.762,8.713,2.97,8.742,3.176,8.742c0.189,0,0.364-0.009,0.526-0.026
	c0.162-0.017,0.322-0.046,0.48-0.087C4.34,8.588,4.5,8.536,4.664,8.47c0.164-0.066,0.341-0.147,0.533-0.245l0.466,0.593L5.695,8.81
	V6.632c0-0.096,0.018-0.184,0.055-0.264s0.109-0.145,0.218-0.196c0.085-0.04,0.186-0.067,0.301-0.081
	c0.115-0.014,0.24-0.028,0.372-0.043V6.014H3.804v0.034c0.041,0.003,0.103,0.007,0.187,0.013s0.176,0.013,0.274,0.023
	c0.099,0.01,0.196,0.023,0.292,0.038c0.096,0.015,0.174,0.035,0.235,0.057c0.119,0.039,0.198,0.11,0.237,0.212
	c0.039,0.102,0.059,0.216,0.059,0.343v0.572c0,0.147-0.029,0.299-0.087,0.457C4.943,7.921,4.85,8.065,4.723,8.195
	c-0.127,0.13-0.293,0.236-0.498,0.32S3.772,8.64,3.481,8.64c-0.322,0-0.613-0.068-0.874-0.203C2.346,8.302,2.126,8.11,1.943,7.861
	s-0.322-0.55-0.42-0.901C1.426,6.608,1.377,6.214,1.377,5.778c0-0.487,0.052-0.923,0.157-1.309c0.105-0.386,0.251-0.713,0.439-0.982
	S2.385,3.013,2.645,2.87c0.26-0.143,0.544-0.213,0.852-0.213c0.29,0,0.556,0.06,0.797,0.179C4.535,2.955,4.75,3.11,4.938,3.3
	c0.188,0.19,0.349,0.404,0.481,0.643c0.133,0.239,0.235,0.478,0.308,0.716h0.042L5.714,2.585H5.677L5.376,3.167
	C5.14,2.995,4.873,2.854,4.573,2.747c-0.3-0.107-0.639-0.162-1.017-0.162c-0.257,0-0.51,0.039-0.759,0.117
	C2.548,2.78,2.312,2.889,2.089,3.029C1.866,3.169,1.66,3.337,1.472,3.534C1.284,3.73,1.121,3.948,0.984,4.187
	C0.847,4.426,0.739,4.682,0.662,4.955c-0.078,0.273-0.117,0.556-0.117,0.85c0,0.314,0.036,0.604,0.108,0.871L0.655,6.674z"/>
<path d="M9.482,8.61V8.576c-0.04-0.003-0.09-0.006-0.151-0.011S9.208,8.556,9.144,8.55C9.08,8.544,9.02,8.537,8.962,8.527
	c-0.058-0.01-0.101-0.02-0.129-0.032c-0.105-0.04-0.176-0.098-0.214-0.174C8.581,8.245,8.562,8.159,8.562,8.062v-2.46h0.827
	c0.164,0,0.307,0.025,0.431,0.076c0.124,0.051,0.228,0.119,0.316,0.204c0.088,0.085,0.161,0.182,0.221,0.293
	c0.06,0.111,0.103,0.226,0.132,0.347c0.029,0.121,0.057,0.242,0.086,0.362c0.029,0.12,0.056,0.232,0.082,0.335
	c0.056,0.241,0.106,0.455,0.151,0.642s0.108,0.343,0.19,0.468c0.082,0.124,0.181,0.218,0.297,0.282
	c0.116,0.064,0.254,0.095,0.415,0.095c0.172,0,0.317-0.025,0.435-0.076c0.118-0.051,0.212-0.127,0.284-0.227
	c0.072-0.1,0.124-0.227,0.155-0.38c0.031-0.153,0.047-0.331,0.047-0.534V7.307h-0.064v0.182c0,0.164-0.015,0.301-0.045,0.409
	s-0.07,0.197-0.119,0.263c-0.049,0.066-0.104,0.113-0.164,0.14c-0.06,0.027-0.121,0.04-0.181,0.04c-0.121,0-0.22-0.04-0.297-0.12
	c-0.077-0.08-0.141-0.204-0.19-0.372c-0.062-0.215-0.112-0.435-0.15-0.659s-0.089-0.457-0.154-0.698
	c-0.042-0.153-0.11-0.286-0.204-0.399c-0.094-0.113-0.208-0.206-0.342-0.281c-0.134-0.075-0.284-0.133-0.449-0.173
	S9.935,5.575,9.755,5.566V5.539c0.204-0.034,0.413-0.087,0.63-0.161c0.217-0.074,0.413-0.172,0.592-0.296
	c0.178-0.124,0.324-0.273,0.439-0.448c0.115-0.175,0.172-0.38,0.172-0.617c0-0.159-0.025-0.302-0.076-0.429
	c-0.051-0.127-0.12-0.241-0.208-0.342c-0.088-0.101-0.188-0.186-0.301-0.257c-0.113-0.071-0.231-0.13-0.354-0.176
	c-0.123-0.047-0.247-0.081-0.373-0.104s-0.244-0.034-0.354-0.034H6.996v0.042C7.033,2.72,7.078,2.725,7.132,2.732
	c0.054,0.007,0.109,0.015,0.165,0.025c0.056,0.01,0.111,0.021,0.163,0.032C7.512,2.8,7.557,2.812,7.594,2.823
	C7.701,2.854,7.773,2.91,7.808,2.99c0.035,0.08,0.053,0.169,0.053,0.265v4.798c0,0.096-0.018,0.182-0.055,0.258
	C7.769,8.387,7.699,8.445,7.594,8.485C7.566,8.496,7.525,8.507,7.473,8.517c-0.052,0.01-0.107,0.019-0.165,0.028
	C7.25,8.554,7.193,8.56,7.136,8.564c-0.057,0.004-0.103,0.008-0.14,0.011v0.034h2.489L9.482,8.61z M8.562,2.749h0.937
	c0.155,0,0.307,0.025,0.454,0.074c0.147,0.049,0.278,0.13,0.392,0.241c0.114,0.111,0.206,0.255,0.276,0.433
	c0.07,0.178,0.104,0.394,0.104,0.65c0,0.242-0.04,0.45-0.121,0.625S10.415,5.09,10.28,5.203c-0.136,0.113-0.292,0.196-0.469,0.249
	c-0.177,0.053-0.361,0.08-0.553,0.08H8.563L8.562,2.749L8.562,2.749z"/>
<path d="M17.977,8.61l0.114-1.626h-0.042c-0.023,0.065-0.059,0.16-0.108,0.284c-0.049,0.124-0.105,0.255-0.167,0.394
	c-0.062,0.138-0.129,0.27-0.199,0.396c-0.07,0.126-0.139,0.222-0.204,0.29c-0.051,0.054-0.136,0.094-0.257,0.121
	c-0.121,0.027-0.257,0.045-0.409,0.055c-0.152,0.01-0.314,0.015-0.483,0.015c-0.17,0-0.331,0-0.483,0
	c-0.221,0-0.399-0.008-0.534-0.023c-0.135-0.015-0.241-0.051-0.316-0.106c-0.075-0.055-0.126-0.135-0.153-0.239
	c-0.027-0.104-0.04-0.246-0.04-0.423V5.571h0.946c0.119,0,0.218,0.009,0.297,0.028s0.146,0.042,0.199,0.07
	c0.054,0.028,0.098,0.059,0.131,0.093c0.033,0.034,0.065,0.066,0.093,0.097c0.025,0.028,0.052,0.078,0.081,0.15
	c0.029,0.072,0.054,0.152,0.076,0.241c0.023,0.089,0.042,0.179,0.057,0.27c0.015,0.091,0.026,0.168,0.032,0.23h0.042V4.367h-0.042
	c-0.006,0.056-0.016,0.126-0.03,0.209c-0.014,0.083-0.032,0.166-0.053,0.249s-0.045,0.161-0.072,0.232
	c-0.027,0.071-0.057,0.123-0.091,0.154c-0.025,0.025-0.054,0.055-0.087,0.089c-0.033,0.034-0.076,0.066-0.129,0.095
	c-0.054,0.029-0.121,0.054-0.201,0.074c-0.08,0.021-0.182,0.029-0.303,0.029h-0.946V2.75h1.2c0.139,0,0.284,0.002,0.437,0.006
	s0.281,0.013,0.386,0.028c0.059,0.008,0.121,0.035,0.184,0.081c0.063,0.046,0.124,0.102,0.182,0.172
	c0.058,0.069,0.114,0.146,0.167,0.229c0.053,0.083,0.102,0.168,0.146,0.254s0.081,0.17,0.112,0.252
	c0.031,0.082,0.054,0.154,0.068,0.216h0.042v-1.31h-4.584v0.034c0.04,0.003,0.09,0.009,0.15,0.017s0.124,0.02,0.189,0.034
	c0.065,0.014,0.129,0.03,0.191,0.047s0.114,0.034,0.157,0.051c0.107,0.045,0.179,0.104,0.214,0.176
	c0.035,0.072,0.053,0.156,0.053,0.252v4.765c0,0.096-0.018,0.181-0.055,0.254c-0.037,0.073-0.107,0.13-0.212,0.17
	c-0.034,0.014-0.081,0.027-0.142,0.038c-0.061,0.011-0.125,0.021-0.193,0.03c-0.068,0.009-0.134,0.015-0.197,0.02
	c-0.064,0.005-0.115,0.009-0.155,0.012v0.034h4.941V8.61z"/>
<path d="M23.604,8.61l0.114-1.626h-0.042c-0.023,0.065-0.059,0.16-0.107,0.284S23.463,7.523,23.4,7.662
	c-0.062,0.138-0.129,0.27-0.198,0.396c-0.07,0.126-0.14,0.222-0.204,0.29c-0.051,0.054-0.137,0.094-0.257,0.121
	c-0.121,0.027-0.257,0.045-0.409,0.055c-0.152,0.01-0.314,0.015-0.482,0.015c-0.17,0-0.332,0-0.483,0
	c-0.222,0-0.399-0.008-0.534-0.023s-0.241-0.051-0.316-0.106c-0.074-0.055-0.125-0.135-0.152-0.239s-0.04-0.246-0.04-0.423V5.571
	h0.946c0.119,0,0.217,0.009,0.297,0.028c0.078,0.019,0.146,0.042,0.199,0.07c0.053,0.028,0.098,0.059,0.131,0.093
	c0.033,0.034,0.064,0.066,0.092,0.097c0.025,0.028,0.053,0.078,0.082,0.15c0.029,0.072,0.054,0.152,0.076,0.241
	s0.041,0.179,0.057,0.27c0.015,0.091,0.025,0.168,0.031,0.23h0.043V4.367h-0.043c-0.006,0.056-0.016,0.126-0.029,0.209
	s-0.032,0.166-0.053,0.249c-0.021,0.083-0.045,0.161-0.072,0.232c-0.027,0.071-0.057,0.123-0.092,0.154
	c-0.024,0.025-0.053,0.055-0.086,0.089c-0.033,0.034-0.076,0.066-0.129,0.095c-0.055,0.029-0.121,0.054-0.201,0.074
	c-0.08,0.021-0.182,0.029-0.303,0.029h-0.946V2.75h1.2c0.138,0,0.283,0.002,0.437,0.006s0.281,0.013,0.386,0.028
	c0.059,0.008,0.121,0.035,0.184,0.081c0.063,0.046,0.125,0.102,0.183,0.172c0.058,0.069,0.114,0.146,0.167,0.229
	s0.102,0.168,0.146,0.254c0.043,0.086,0.08,0.17,0.111,0.252s0.055,0.154,0.068,0.216h0.042v-1.31h-4.584v0.034
	c0.04,0.003,0.09,0.009,0.151,0.017s0.124,0.02,0.189,0.034c0.065,0.014,0.129,0.03,0.191,0.047s0.114,0.034,0.157,0.051
	c0.107,0.045,0.179,0.104,0.214,0.176c0.035,0.072,0.053,0.156,0.053,0.252v4.765c0,0.096-0.018,0.181-0.055,0.254
	c-0.037,0.073-0.107,0.13-0.212,0.17c-0.034,0.014-0.081,0.027-0.142,0.038c-0.061,0.011-0.125,0.021-0.193,0.03
	c-0.068,0.008-0.134,0.015-0.197,0.02s-0.115,0.009-0.155,0.012v0.034h4.941L23.604,8.61z"/>
<path d="M24.191,2.751c0.09,0.024,0.18,0.053,0.27,0.087c0.09,0.034,0.176,0.071,0.257,0.112s0.148,0.083,0.201,0.125
	c0.185,0.15,0.276,0.379,0.276,0.687V7.15c0,0.184-0.008,0.344-0.021,0.481c-0.014,0.137-0.035,0.254-0.062,0.352
	c-0.026,0.098-0.059,0.176-0.098,0.235c-0.037,0.059-0.082,0.103-0.134,0.132c-0.024,0.014-0.073,0.033-0.142,0.057
	c-0.069,0.024-0.145,0.048-0.225,0.072c-0.082,0.024-0.16,0.045-0.236,0.064c-0.075,0.019-0.135,0.029-0.178,0.032v0.034h2.43V8.575
	c-0.039-0.003-0.102-0.013-0.188-0.03s-0.178-0.039-0.276-0.066c-0.098-0.027-0.189-0.057-0.277-0.089
	c-0.088-0.033-0.15-0.064-0.188-0.095c-0.096-0.079-0.172-0.214-0.227-0.405S25.29,7.438,25.29,7.108V3.461l4.247,5.225H29.6v-4.61
	c0-0.136,0.004-0.265,0.012-0.388c0.01-0.123,0.025-0.235,0.048-0.337s0.053-0.189,0.093-0.263c0.04-0.074,0.09-0.129,0.152-0.165
	c0.025-0.017,0.072-0.037,0.141-0.062s0.145-0.047,0.225-0.07s0.157-0.042,0.231-0.057s0.132-0.023,0.171-0.023V2.677h-2.393v0.034
	c0.055,0.003,0.125,0.013,0.212,0.03c0.087,0.017,0.177,0.037,0.271,0.062c0.092,0.025,0.18,0.051,0.26,0.081
	c0.08,0.03,0.142,0.057,0.184,0.083c0.096,0.057,0.169,0.188,0.22,0.394c0.052,0.206,0.076,0.462,0.076,0.768V7.56l-3.969-4.881
	H23.95v0.025c0.071,0.008,0.149,0.025,0.239,0.049L24.191,2.751z"/>
<path d="M3.193,15.549v-0.034c-0.04-0.003-0.091-0.008-0.155-0.017s-0.129-0.019-0.197-0.032c-0.068-0.013-0.131-0.025-0.189-0.038
	c-0.058-0.013-0.1-0.025-0.125-0.036c-0.099-0.042-0.169-0.1-0.21-0.172c-0.041-0.072-0.062-0.156-0.062-0.252v-2.443h1.06
	c0.096,0,0.182,0.009,0.259,0.028c0.077,0.019,0.143,0.042,0.199,0.072s0.105,0.063,0.146,0.099c0.041,0.036,0.074,0.072,0.1,0.106
	s0.052,0.088,0.078,0.163c0.027,0.075,0.051,0.156,0.072,0.245c0.021,0.089,0.039,0.178,0.053,0.266
	c0.014,0.089,0.024,0.164,0.03,0.226h0.047l0.008-2.409H4.26c-0.008,0.09-0.021,0.179-0.038,0.266
	c-0.017,0.087-0.037,0.169-0.059,0.245c-0.023,0.076-0.047,0.142-0.074,0.198c-0.027,0.056-0.053,0.099-0.078,0.127
	c-0.028,0.031-0.061,0.063-0.098,0.097c-0.037,0.034-0.081,0.065-0.134,0.095c-0.052,0.03-0.117,0.054-0.193,0.074
	s-0.167,0.03-0.271,0.03h-1.06V9.688h1.26c0.141,0,0.279,0.002,0.413,0.004c0.134,0.002,0.254,0.013,0.358,0.03
	c0.088,0.014,0.18,0.071,0.278,0.17s0.189,0.215,0.274,0.348c0.085,0.133,0.158,0.269,0.221,0.409s0.103,0.257,0.123,0.35h0.047
	V9.616H0.598V9.65c0.04,0.003,0.09,0.009,0.151,0.017s0.124,0.02,0.189,0.034c0.065,0.014,0.129,0.03,0.191,0.047
	s0.115,0.034,0.157,0.051C1.393,9.844,1.465,9.903,1.5,9.975c0.035,0.072,0.053,0.156,0.053,0.252v4.775
	c0,0.096-0.018,0.18-0.055,0.25s-0.107,0.126-0.212,0.165c-0.034,0.014-0.081,0.027-0.142,0.038
	c-0.061,0.011-0.125,0.021-0.193,0.03c-0.068,0.008-0.134,0.015-0.197,0.019s-0.115,0.008-0.155,0.011v0.034H3.193L3.193,15.549z"/>
<path d="M6.045,13.897c0.16,0.363,0.378,0.679,0.655,0.948c0.28,0.271,0.59,0.479,0.931,0.621c0.341,0.142,0.705,0.214,1.092,0.214
	c0.441,0,0.836-0.074,1.185-0.221c0.349-0.147,0.661-0.358,0.935-0.632c0.317-0.317,0.541-0.665,0.672-1.045
	c0.131-0.38,0.197-0.794,0.197-1.24c0-0.204-0.018-0.406-0.055-0.608c-0.037-0.202-0.089-0.396-0.157-0.583
	s-0.151-0.361-0.248-0.522c-0.098-0.161-0.209-0.304-0.333-0.428c-0.17-0.167-0.341-0.309-0.513-0.426
	c-0.172-0.117-0.348-0.212-0.528-0.284c-0.18-0.072-0.363-0.124-0.549-0.157C9.143,9.501,8.952,9.485,8.756,9.485
	c-0.387,0-0.761,0.073-1.122,0.218c-0.361,0.145-0.681,0.36-0.961,0.643c-0.266,0.269-0.477,0.594-0.634,0.975
	c-0.157,0.381-0.235,0.824-0.235,1.327C5.804,13.118,5.884,13.534,6.045,13.897L6.045,13.897z M6.772,11.349
	c0.102-0.386,0.246-0.712,0.433-0.977s0.411-0.468,0.674-0.606c0.263-0.138,0.556-0.208,0.878-0.208
	c0.325,0,0.619,0.069,0.882,0.208c0.263,0.139,0.488,0.337,0.674,0.596c0.187,0.259,0.33,0.575,0.43,0.948
	c0.1,0.373,0.151,0.794,0.151,1.264c0,0.43-0.044,0.83-0.132,1.2c-0.088,0.37-0.22,0.691-0.396,0.963
	c-0.177,0.271-0.399,0.485-0.668,0.64c-0.269,0.155-0.582,0.233-0.941,0.233c-0.362,0-0.676-0.078-0.944-0.233
	c-0.268-0.155-0.489-0.367-0.666-0.634c-0.177-0.267-0.309-0.579-0.396-0.937S6.62,13.069,6.62,12.667
	C6.62,12.175,6.671,11.736,6.772,11.349L6.772,11.349z"/>
<path d="M15.008,15.549v-0.034c-0.04-0.003-0.09-0.006-0.151-0.011s-0.123-0.009-0.187-0.015c-0.064-0.006-0.124-0.013-0.182-0.023
	c-0.058-0.01-0.101-0.02-0.129-0.032c-0.105-0.04-0.176-0.098-0.214-0.174c-0.038-0.076-0.057-0.162-0.057-0.259v-2.46h0.827
	c0.164,0,0.307,0.025,0.43,0.076c0.123,0.051,0.228,0.119,0.316,0.204c0.088,0.085,0.161,0.182,0.221,0.293
	c0.059,0.11,0.104,0.226,0.132,0.347c0.028,0.121,0.058,0.242,0.086,0.362c0.029,0.12,0.056,0.232,0.082,0.335
	c0.056,0.241,0.106,0.455,0.151,0.642s0.108,0.343,0.19,0.468s0.181,0.218,0.297,0.282c0.116,0.064,0.254,0.095,0.416,0.095
	c0.172,0,0.317-0.025,0.435-0.076c0.118-0.051,0.212-0.127,0.284-0.227c0.072-0.1,0.124-0.227,0.155-0.38
	c0.031-0.153,0.047-0.331,0.047-0.534v-0.182h-0.064v0.182c0,0.164-0.015,0.3-0.045,0.409c-0.03,0.109-0.07,0.197-0.119,0.263
	c-0.049,0.066-0.104,0.113-0.164,0.14c-0.06,0.027-0.121,0.04-0.181,0.04c-0.121,0-0.22-0.04-0.297-0.12s-0.141-0.204-0.19-0.372
	c-0.062-0.215-0.112-0.435-0.15-0.659c-0.038-0.224-0.089-0.457-0.154-0.698c-0.042-0.153-0.11-0.286-0.204-0.399
	c-0.094-0.113-0.208-0.206-0.342-0.281c-0.134-0.075-0.284-0.133-0.449-0.173s-0.337-0.064-0.517-0.073v-0.027
	c0.204-0.034,0.413-0.087,0.63-0.161c0.217-0.074,0.413-0.172,0.592-0.296c0.178-0.124,0.324-0.273,0.439-0.448
	c0.115-0.175,0.172-0.38,0.172-0.617c0-0.159-0.025-0.302-0.076-0.429c-0.051-0.127-0.12-0.241-0.208-0.342
	s-0.188-0.186-0.301-0.257c-0.113-0.071-0.231-0.13-0.354-0.176c-0.123-0.047-0.247-0.081-0.373-0.104
	c-0.126-0.023-0.244-0.034-0.354-0.034h-2.926v0.042c0.037,0.003,0.082,0.008,0.136,0.015c0.054,0.007,0.109,0.015,0.165,0.025
	c0.056,0.01,0.111,0.021,0.163,0.032c0.052,0.011,0.097,0.023,0.134,0.034c0.107,0.031,0.179,0.087,0.214,0.167
	c0.035,0.08,0.053,0.169,0.053,0.265v4.798c0,0.096-0.018,0.182-0.055,0.258s-0.107,0.134-0.212,0.174
	c-0.028,0.011-0.069,0.022-0.121,0.032c-0.052,0.01-0.107,0.019-0.165,0.028c-0.058,0.009-0.115,0.015-0.172,0.019
	s-0.103,0.008-0.14,0.011v0.034h2.489L15.008,15.549z M14.088,9.688h0.937c0.155,0,0.307,0.025,0.454,0.074
	c0.147,0.049,0.278,0.13,0.392,0.241c0.114,0.111,0.206,0.255,0.276,0.433s0.104,0.394,0.104,0.65c0,0.242-0.04,0.45-0.121,0.625
	s-0.189,0.318-0.324,0.431c-0.136,0.113-0.292,0.196-0.469,0.249c-0.177,0.053-0.361,0.08-0.553,0.08h-0.695L14.088,9.688
	L14.088,9.688z"/>
<path d="M2.282,22.489v-0.034c-0.096-0.003-0.205-0.016-0.327-0.036s-0.237-0.051-0.346-0.089s-0.2-0.086-0.274-0.143
	c-0.074-0.056-0.11-0.125-0.11-0.203c0-0.06,0.009-0.131,0.028-0.213S1.296,21.6,1.327,21.5c0.04-0.143,0.1-0.318,0.18-0.533
	c0.08-0.214,0.172-0.445,0.274-0.695h2.256l0.653,1.645c0.014,0.031,0.023,0.066,0.028,0.104c0.005,0.039,0.006,0.073,0.006,0.104
	c0,0.054-0.035,0.101-0.104,0.14c-0.069,0.039-0.153,0.073-0.252,0.101c-0.099,0.026-0.201,0.048-0.307,0.063
	s-0.197,0.025-0.274,0.028v0.034h2.519v-0.034c-0.082-0.006-0.17-0.021-0.263-0.042c-0.093-0.021-0.18-0.059-0.259-0.105
	c-0.105-0.062-0.182-0.129-0.231-0.199c-0.049-0.069-0.091-0.147-0.125-0.235c-0.054-0.133-0.123-0.308-0.208-0.524
	c-0.085-0.218-0.181-0.464-0.288-0.74c-0.107-0.277-0.225-0.58-0.352-0.906c-0.127-0.328-0.261-0.669-0.401-1.026
	c-0.14-0.356-0.284-0.722-0.43-1.096c-0.147-0.375-0.294-0.747-0.441-1.117H3.232c-0.167,0.413-0.341,0.843-0.524,1.291
	S2.343,18.65,2.159,19.1c-0.184,0.447-0.365,0.885-0.543,1.312c-0.178,0.427-0.344,0.826-0.496,1.197
	c-0.065,0.162-0.149,0.302-0.252,0.42c-0.103,0.117-0.204,0.205-0.303,0.261c-0.082,0.048-0.176,0.086-0.282,0.114
	c-0.106,0.029-0.2,0.046-0.282,0.052v0.034L2.282,22.489L2.282,22.489z M2.952,17.393l1.052,2.777H1.816L2.952,17.393z"/>
<path d="M11.272,22.489l0.136-1.644h-0.034c-0.011,0.041-0.033,0.098-0.066,0.168c-0.033,0.07-0.072,0.149-0.119,0.235
	s-0.098,0.176-0.155,0.269c-0.057,0.094-0.112,0.183-0.167,0.268c-0.055,0.085-0.107,0.162-0.157,0.23
	c-0.05,0.069-0.091,0.125-0.125,0.164c-0.042,0.045-0.117,0.082-0.223,0.113s-0.228,0.057-0.367,0.074
	c-0.139,0.018-0.282,0.031-0.431,0.037c-0.149,0.008-0.286,0.012-0.414,0.012c-0.24,0-0.43-0.007-0.568-0.021
	c-0.138-0.014-0.243-0.047-0.314-0.102c-0.071-0.054-0.115-0.134-0.134-0.241c-0.019-0.106-0.028-0.253-0.028-0.436v-4.472
	c0-0.096,0.018-0.184,0.055-0.263s0.109-0.136,0.216-0.169c0.04-0.011,0.087-0.023,0.142-0.038c0.055-0.014,0.112-0.026,0.172-0.038
	c0.059-0.011,0.117-0.021,0.174-0.029c0.057-0.01,0.105-0.015,0.144-0.018v-0.033H6.536v0.033c0.037,0.003,0.082,0.01,0.136,0.021
	c0.054,0.011,0.108,0.024,0.163,0.039c0.055,0.017,0.109,0.033,0.161,0.052c0.052,0.019,0.098,0.036,0.138,0.053
	c0.107,0.048,0.179,0.109,0.214,0.183c0.035,0.072,0.053,0.158,0.053,0.254v4.738c0,0.096-0.018,0.182-0.055,0.26
	c-0.037,0.076-0.107,0.134-0.212,0.174c-0.028,0.011-0.069,0.021-0.121,0.031c-0.052,0.01-0.107,0.02-0.165,0.028
	s-0.115,0.015-0.172,0.021c-0.057,0.005-0.103,0.009-0.14,0.012v0.034h4.733H11.272z"/>
<path d="M16.577,22.489l0.136-1.644h-0.034c-0.011,0.041-0.033,0.098-0.066,0.168c-0.033,0.07-0.072,0.149-0.119,0.235
	c-0.047,0.086-0.098,0.176-0.155,0.269c-0.057,0.094-0.112,0.183-0.167,0.268c-0.055,0.085-0.107,0.162-0.157,0.23
	c-0.05,0.069-0.091,0.125-0.125,0.164c-0.042,0.045-0.117,0.082-0.223,0.113s-0.228,0.057-0.367,0.074
	c-0.139,0.018-0.282,0.031-0.431,0.037c-0.149,0.008-0.286,0.012-0.413,0.012c-0.24,0-0.43-0.007-0.568-0.021
	c-0.138-0.014-0.243-0.047-0.314-0.102c-0.071-0.054-0.115-0.134-0.134-0.241c-0.019-0.106-0.028-0.253-0.028-0.436v-4.472
	c0-0.096,0.018-0.184,0.055-0.263c0.037-0.079,0.109-0.136,0.216-0.169c0.04-0.011,0.087-0.023,0.142-0.038
	c0.055-0.014,0.112-0.026,0.172-0.038c0.059-0.011,0.117-0.021,0.174-0.029c0.057-0.01,0.105-0.015,0.144-0.018v-0.033h-2.472v0.033
	c0.037,0.003,0.082,0.01,0.136,0.021c0.054,0.011,0.108,0.024,0.163,0.039c0.055,0.017,0.109,0.033,0.161,0.052
	c0.052,0.019,0.098,0.036,0.138,0.053c0.107,0.048,0.179,0.109,0.214,0.183c0.035,0.072,0.053,0.158,0.053,0.254v4.738
	c0,0.096-0.018,0.182-0.055,0.26c-0.037,0.076-0.107,0.134-0.212,0.174c-0.028,0.011-0.069,0.021-0.121,0.031
	c-0.052,0.01-0.107,0.02-0.165,0.028c-0.058,0.009-0.115,0.015-0.172,0.021c-0.057,0.005-0.103,0.009-0.14,0.012v0.034h4.732H16.577
	z"/>
<path d="M0.712,29.514h0.025l0.331-0.518c0.105,0.072,0.213,0.143,0.327,0.207s0.235,0.123,0.367,0.171
	c0.131,0.049,0.274,0.088,0.426,0.117c0.152,0.028,0.321,0.044,0.505,0.044c0.226,0,0.444-0.04,0.653-0.121s0.394-0.197,0.556-0.35
	c0.161-0.151,0.291-0.338,0.388-0.558s0.146-0.469,0.146-0.749c0-0.229-0.029-0.425-0.087-0.586s-0.141-0.302-0.25-0.423
	c-0.109-0.12-0.24-0.228-0.394-0.319c-0.154-0.092-0.327-0.183-0.52-0.273c-0.107-0.051-0.209-0.098-0.303-0.139
	c-0.094-0.041-0.189-0.082-0.282-0.123c-0.093-0.041-0.19-0.084-0.29-0.129c-0.1-0.047-0.207-0.099-0.32-0.158
	c-0.127-0.067-0.238-0.139-0.333-0.211c-0.095-0.073-0.174-0.154-0.237-0.242s-0.112-0.187-0.144-0.293
	c-0.032-0.108-0.049-0.229-0.049-0.366c0-0.125,0.025-0.248,0.076-0.37c0.051-0.122,0.122-0.23,0.214-0.327
	c0.092-0.096,0.202-0.174,0.331-0.233c0.129-0.061,0.271-0.09,0.426-0.09c0.249,0,0.47,0.047,0.664,0.141
	c0.194,0.093,0.367,0.224,0.52,0.393s0.287,0.369,0.403,0.6c0.116,0.229,0.219,0.483,0.31,0.759h0.042l-0.042-1.964H4.146
	L3.815,23.93c-0.076-0.062-0.161-0.123-0.254-0.188c-0.093-0.064-0.199-0.12-0.318-0.172c-0.119-0.051-0.252-0.09-0.399-0.121
	c-0.147-0.031-0.312-0.047-0.496-0.047c-0.212,0-0.411,0.037-0.596,0.113c-0.185,0.074-0.346,0.18-0.481,0.313
	c-0.136,0.134-0.242,0.295-0.32,0.483c-0.078,0.188-0.117,0.396-0.117,0.625c0,0.201,0.022,0.379,0.066,0.533
	c0.044,0.153,0.108,0.293,0.193,0.413c0.085,0.121,0.189,0.229,0.314,0.321c0.124,0.092,0.267,0.175,0.428,0.249
	c0.141,0.065,0.261,0.12,0.361,0.164c0.1,0.044,0.194,0.085,0.284,0.123s0.184,0.077,0.282,0.118
	c0.098,0.041,0.214,0.092,0.35,0.151c0.266,0.113,0.477,0.269,0.634,0.468c0.157,0.199,0.235,0.434,0.235,0.705
	c0,0.174-0.028,0.336-0.083,0.491s-0.136,0.29-0.242,0.408c-0.106,0.118-0.237,0.21-0.392,0.278
	C3.109,29.43,2.93,29.463,2.73,29.463c-0.249,0-0.475-0.046-0.678-0.138c-0.203-0.093-0.389-0.222-0.556-0.392
	c-0.167-0.168-0.317-0.371-0.45-0.607c-0.133-0.237-0.252-0.498-0.356-0.784H0.652l0.064,1.972H0.712z"/>
<path d="M10.072,29.43l0.114-1.627h-0.042c-0.023,0.065-0.059,0.16-0.108,0.284c-0.049,0.124-0.105,0.256-0.167,0.394
	c-0.062,0.139-0.129,0.271-0.199,0.396c-0.071,0.126-0.139,0.223-0.204,0.29c-0.051,0.054-0.136,0.094-0.257,0.121
	c-0.121,0.026-0.257,0.045-0.409,0.055c-0.153,0.011-0.314,0.015-0.483,0.015s-0.331,0-0.483,0c-0.221,0-0.399-0.008-0.534-0.022
	c-0.135-0.015-0.241-0.051-0.316-0.106c-0.075-0.055-0.126-0.135-0.153-0.238c-0.027-0.104-0.04-0.246-0.04-0.424v-2.176h0.946
	c0.119,0,0.218,0.008,0.297,0.027c0.079,0.02,0.146,0.042,0.199,0.07c0.054,0.027,0.098,0.059,0.132,0.093
	c0.034,0.034,0.065,0.065,0.093,0.097c0.025,0.028,0.052,0.078,0.081,0.15c0.029,0.072,0.054,0.152,0.076,0.24
	c0.022,0.09,0.042,0.18,0.057,0.271c0.015,0.093,0.026,0.168,0.032,0.229h0.042v-2.383H8.704c-0.006,0.057-0.015,0.127-0.03,0.209
	c-0.015,0.084-0.032,0.166-0.053,0.25c-0.021,0.082-0.045,0.16-0.072,0.231c-0.027,0.071-0.057,0.123-0.091,0.153
	c-0.025,0.025-0.054,0.056-0.087,0.09c-0.033,0.033-0.076,0.064-0.129,0.095c-0.054,0.029-0.121,0.054-0.201,0.074
	s-0.182,0.028-0.303,0.028H6.792v-2.748h1.2c0.138,0,0.284,0.002,0.437,0.007c0.153,0.004,0.281,0.013,0.386,0.028
	c0.059,0.008,0.121,0.035,0.184,0.08c0.063,0.047,0.124,0.103,0.182,0.172c0.058,0.069,0.114,0.146,0.167,0.229
	c0.053,0.083,0.102,0.168,0.146,0.254s0.081,0.17,0.112,0.252c0.031,0.082,0.054,0.154,0.068,0.216h0.042v-1.31H5.132v0.034
	c0.04,0.003,0.09,0.009,0.151,0.017c0.061,0.009,0.124,0.021,0.189,0.034s0.129,0.029,0.191,0.047s0.114,0.034,0.157,0.051
	c0.107,0.045,0.179,0.104,0.214,0.176c0.035,0.072,0.053,0.156,0.053,0.252v4.766c0,0.096-0.019,0.182-0.055,0.254
	c-0.036,0.073-0.107,0.13-0.212,0.17c-0.034,0.014-0.081,0.027-0.142,0.038c-0.061,0.011-0.125,0.021-0.193,0.03
	c-0.068,0.008-0.134,0.015-0.197,0.02c-0.063,0.006-0.115,0.01-0.155,0.012v0.035h4.94L10.072,29.43z"/>
<path d="M12.443,29.43v-0.035c-0.096-0.002-0.205-0.015-0.326-0.035c-0.121-0.021-0.237-0.051-0.346-0.09
	c-0.109-0.037-0.2-0.086-0.274-0.142c-0.074-0.058-0.11-0.125-0.11-0.204c0-0.059,0.009-0.13,0.028-0.212s0.043-0.173,0.074-0.272
	c0.04-0.142,0.1-0.318,0.18-0.532s0.172-0.446,0.274-0.695h2.256l0.653,1.644c0.014,0.031,0.023,0.066,0.028,0.104
	s0.006,0.073,0.006,0.104c0,0.054-0.035,0.101-0.104,0.14c-0.069,0.039-0.153,0.073-0.252,0.101
	c-0.099,0.026-0.201,0.047-0.307,0.063c-0.106,0.016-0.197,0.024-0.274,0.028v0.033h2.519v-0.033
	c-0.082-0.006-0.17-0.021-0.263-0.043c-0.093-0.021-0.18-0.058-0.259-0.105c-0.105-0.062-0.182-0.128-0.231-0.198
	c-0.049-0.069-0.091-0.147-0.125-0.235c-0.054-0.133-0.123-0.309-0.208-0.525s-0.181-0.463-0.288-0.74
	c-0.107-0.277-0.225-0.578-0.352-0.906s-0.261-0.668-0.401-1.025c-0.14-0.357-0.284-0.723-0.431-1.096
	c-0.147-0.375-0.294-0.748-0.441-1.117h-0.076c-0.167,0.412-0.341,0.843-0.524,1.291c-0.183,0.447-0.366,0.896-0.549,1.344
	c-0.184,0.447-0.365,0.886-0.543,1.312c-0.178,0.428-0.344,0.828-0.496,1.198c-0.065,0.161-0.149,0.302-0.252,0.419
	c-0.103,0.118-0.204,0.205-0.303,0.262c-0.082,0.047-0.176,0.086-0.282,0.115c-0.106,0.028-0.2,0.045-0.282,0.051v0.033H12.443
	L12.443,29.43z M13.113,24.331l1.052,2.778h-2.188L13.113,24.331z"/>
<path d="M16.726,29.514h0.025l0.331-0.518c0.105,0.072,0.213,0.143,0.326,0.207c0.113,0.064,0.235,0.123,0.367,0.171
	c0.131,0.049,0.274,0.088,0.426,0.117c0.152,0.028,0.321,0.044,0.505,0.044c0.226,0,0.444-0.04,0.653-0.121s0.394-0.197,0.556-0.35
	c0.161-0.151,0.291-0.338,0.388-0.558c0.098-0.22,0.146-0.469,0.146-0.749c0-0.229-0.029-0.425-0.088-0.586
	c-0.057-0.161-0.141-0.302-0.25-0.423c-0.108-0.12-0.239-0.228-0.394-0.319c-0.154-0.092-0.327-0.183-0.519-0.273
	c-0.107-0.051-0.209-0.098-0.303-0.139s-0.189-0.082-0.282-0.123c-0.093-0.041-0.19-0.084-0.29-0.129
	c-0.1-0.047-0.207-0.099-0.32-0.158c-0.127-0.067-0.238-0.139-0.333-0.211c-0.095-0.073-0.174-0.154-0.237-0.242
	s-0.112-0.187-0.144-0.293c-0.033-0.108-0.049-0.229-0.049-0.366c0-0.125,0.025-0.248,0.076-0.37
	c0.051-0.122,0.122-0.23,0.214-0.327c0.092-0.096,0.202-0.174,0.331-0.233c0.129-0.061,0.271-0.09,0.426-0.09
	c0.249,0,0.47,0.047,0.664,0.141c0.194,0.093,0.367,0.224,0.52,0.393c0.153,0.169,0.287,0.369,0.403,0.6
	c0.116,0.229,0.219,0.483,0.311,0.759h0.041l-0.041-1.964H20.16l-0.331,0.527c-0.076-0.062-0.161-0.123-0.254-0.188
	c-0.093-0.064-0.199-0.12-0.318-0.172c-0.119-0.051-0.252-0.09-0.399-0.121s-0.312-0.047-0.496-0.047
	c-0.212,0-0.411,0.037-0.596,0.113c-0.185,0.074-0.346,0.18-0.481,0.313c-0.136,0.134-0.242,0.295-0.32,0.483
	c-0.078,0.188-0.117,0.396-0.117,0.625c0,0.201,0.022,0.379,0.066,0.533c0.044,0.153,0.108,0.293,0.193,0.413
	c0.085,0.121,0.189,0.229,0.314,0.321c0.124,0.092,0.267,0.175,0.428,0.249c0.141,0.065,0.262,0.12,0.361,0.164
	s0.194,0.085,0.284,0.123c0.09,0.038,0.184,0.077,0.282,0.118c0.098,0.041,0.214,0.092,0.35,0.151
	c0.266,0.113,0.477,0.269,0.634,0.468c0.157,0.199,0.235,0.434,0.235,0.705c0,0.174-0.028,0.336-0.083,0.491
	c-0.055,0.155-0.136,0.29-0.242,0.408s-0.237,0.21-0.392,0.278c-0.155,0.068-0.334,0.102-0.534,0.102
	c-0.249,0-0.475-0.046-0.678-0.138c-0.203-0.093-0.389-0.222-0.556-0.392c-0.167-0.168-0.317-0.371-0.45-0.607
	c-0.133-0.237-0.252-0.498-0.356-0.784h-0.038l0.064,1.972H16.726z"/>
<path d="M21.359,27.777c0.16,0.363,0.377,0.679,0.654,0.947c0.28,0.271,0.59,0.479,0.932,0.621c0.341,0.143,0.705,0.215,1.092,0.215
	c0.441,0,0.836-0.074,1.186-0.222c0.348-0.147,0.66-0.358,0.935-0.632c0.317-0.316,0.541-0.665,0.672-1.045s0.196-0.794,0.196-1.24
	c0-0.204-0.018-0.406-0.055-0.607c-0.037-0.203-0.089-0.396-0.156-0.584c-0.068-0.187-0.151-0.36-0.248-0.521
	c-0.098-0.161-0.209-0.305-0.334-0.428c-0.17-0.167-0.34-0.309-0.512-0.426c-0.173-0.117-0.35-0.213-0.529-0.285
	c-0.18-0.071-0.362-0.123-0.549-0.156c-0.186-0.033-0.377-0.049-0.572-0.049c-0.387,0-0.762,0.072-1.122,0.218
	c-0.361,0.146-0.681,0.36-0.962,0.642c-0.266,0.27-0.477,0.594-0.633,0.976c-0.158,0.381-0.235,0.823-0.235,1.327
	c0,0.47,0.08,0.886,0.239,1.248L21.359,27.777z M22.086,25.229c0.102-0.387,0.246-0.713,0.434-0.978
	c0.187-0.265,0.41-0.468,0.674-0.606c0.263-0.138,0.556-0.207,0.877-0.207c0.326,0,0.619,0.068,0.883,0.207
	c0.263,0.14,0.488,0.338,0.674,0.597c0.188,0.259,0.33,0.575,0.43,0.948c0.101,0.373,0.151,0.793,0.151,1.264
	c0,0.43-0.044,0.83-0.131,1.199c-0.087,0.371-0.22,0.691-0.396,0.964c-0.178,0.271-0.399,0.485-0.668,0.64
	c-0.27,0.155-0.582,0.233-0.941,0.233c-0.362,0-0.676-0.078-0.944-0.233c-0.269-0.154-0.489-0.367-0.666-0.634
	s-0.31-0.579-0.396-0.937c-0.088-0.358-0.131-0.737-0.131-1.14c0-0.491,0.051-0.931,0.152-1.317H22.086z"/>
<path d="M27.645,23.57c0.088,0.023,0.179,0.053,0.269,0.087s0.176,0.071,0.257,0.112s0.148,0.082,0.201,0.125
	c0.184,0.149,0.275,0.379,0.275,0.687v3.388c0,0.184-0.006,0.344-0.021,0.481c-0.015,0.137-0.035,0.254-0.062,0.352
	c-0.026,0.099-0.059,0.177-0.098,0.235s-0.083,0.104-0.134,0.131c-0.024,0.014-0.073,0.033-0.142,0.057
	c-0.069,0.024-0.145,0.049-0.226,0.072s-0.159,0.045-0.235,0.064c-0.076,0.019-0.135,0.029-0.178,0.031v0.034h2.43v-0.034
	c-0.039-0.002-0.102-0.013-0.188-0.029c-0.087-0.018-0.178-0.039-0.276-0.066c-0.098-0.027-0.189-0.057-0.277-0.089
	s-0.15-0.063-0.188-0.095c-0.096-0.079-0.172-0.215-0.227-0.405s-0.083-0.452-0.083-0.782v-3.646l4.247,5.225h0.062v-4.609
	c0-0.137,0.005-0.266,0.013-0.389c0.01-0.123,0.024-0.234,0.047-0.337c0.021-0.103,0.053-0.188,0.093-0.263s0.09-0.129,0.151-0.165
	c0.025-0.017,0.074-0.037,0.142-0.062c0.067-0.025,0.144-0.048,0.224-0.07c0.08-0.023,0.158-0.043,0.232-0.058
	s0.132-0.022,0.171-0.022v-0.034h-2.392v0.034c0.054,0.003,0.123,0.013,0.211,0.029c0.086,0.018,0.177,0.037,0.27,0.062
	c0.094,0.025,0.18,0.051,0.26,0.081s0.143,0.057,0.185,0.083c0.096,0.057,0.169,0.188,0.22,0.395
	c0.051,0.205,0.076,0.461,0.076,0.768v3.431l-3.969-4.881h-1.582v0.024c0.07,0.008,0.149,0.024,0.24,0.049H27.645z"/>
<path d="M34.545,29.514h0.025l0.33-0.518c0.105,0.072,0.213,0.143,0.328,0.207c0.113,0.064,0.234,0.123,0.367,0.171
	c0.131,0.049,0.273,0.088,0.426,0.117c0.151,0.028,0.32,0.044,0.504,0.044c0.227,0,0.445-0.04,0.654-0.121s0.394-0.197,0.555-0.35
	c0.162-0.151,0.291-0.338,0.389-0.558s0.146-0.469,0.146-0.749c0-0.229-0.029-0.425-0.088-0.586
	c-0.058-0.161-0.141-0.302-0.25-0.423c-0.108-0.12-0.24-0.228-0.394-0.319c-0.154-0.092-0.327-0.183-0.521-0.273
	c-0.106-0.051-0.209-0.098-0.303-0.139s-0.189-0.082-0.281-0.123c-0.094-0.041-0.19-0.084-0.291-0.129
	c-0.102-0.047-0.207-0.099-0.32-0.158c-0.127-0.067-0.238-0.139-0.334-0.211c-0.094-0.073-0.174-0.154-0.236-0.242
	s-0.111-0.187-0.145-0.293c-0.031-0.108-0.049-0.229-0.049-0.366c0-0.125,0.025-0.248,0.076-0.37s0.122-0.23,0.215-0.327
	c0.092-0.096,0.201-0.174,0.33-0.233c0.129-0.061,0.271-0.09,0.426-0.09c0.25,0,0.471,0.047,0.664,0.141
	c0.194,0.093,0.367,0.224,0.521,0.393s0.287,0.369,0.403,0.6c0.115,0.229,0.219,0.483,0.31,0.759h0.042l-0.042-1.964h-0.024
	l-0.332,0.527c-0.076-0.062-0.16-0.123-0.254-0.188c-0.093-0.064-0.199-0.12-0.317-0.172c-0.119-0.051-0.252-0.09-0.399-0.121
	c-0.146-0.031-0.312-0.047-0.496-0.047c-0.212,0-0.41,0.037-0.596,0.113c-0.186,0.074-0.346,0.18-0.48,0.313
	c-0.137,0.134-0.242,0.295-0.32,0.483c-0.078,0.188-0.117,0.396-0.117,0.625c0,0.201,0.021,0.379,0.066,0.533
	c0.043,0.153,0.107,0.293,0.192,0.413c0.085,0.122,0.188,0.229,0.313,0.321s0.268,0.175,0.429,0.249
	c0.142,0.065,0.261,0.12,0.36,0.164c0.101,0.044,0.195,0.085,0.285,0.123s0.184,0.077,0.281,0.118s0.215,0.092,0.35,0.151
	c0.267,0.113,0.478,0.269,0.635,0.468c0.156,0.199,0.234,0.434,0.234,0.705c0,0.174-0.027,0.336-0.082,0.491
	c-0.056,0.155-0.137,0.29-0.242,0.408c-0.106,0.118-0.237,0.21-0.393,0.278c-0.154,0.068-0.334,0.102-0.533,0.102
	c-0.25,0-0.476-0.046-0.679-0.138c-0.202-0.093-0.389-0.222-0.556-0.392c-0.167-0.168-0.316-0.371-0.45-0.607
	c-0.133-0.237-0.252-0.498-0.356-0.784h-0.037l0.063,1.972H34.545z"/>
<path d="M0,0h38.635v0.164H0V0z"/>
<path d="M0,31.798h38.635V32H0V31.798z"/>
</svg>
