<?xml version="1.0" encoding="utf-8"?>
<!-- Generated by IcoMoon.io -->
<!DOCTYPE svg PUBLIC "-//W3C//DTD SVG 1.1//EN" "http://www.w3.org/Graphics/SVG/1.1/DTD/svg11.dtd">
<svg version="1.1" xmlns="http://www.w3.org/2000/svg" xmlns:xlink="http://www.w3.org/1999/xlink" width="136" height="32" viewBox="0 0 136 32">
<path fill="#444444" d="M6.315 14.897h-1.923v-1.197c0 0 0-4.672 0-12.446h-4.392v-1.104h10.529v1.105h-4.214z"></path>
<path fill="#444444" d="M29.035 0.149v5.788h-7.52v-5.773h-1.896v13.544h1.896v-6.718h7.516v6.718h1.9v-13.559z"></path>
<path fill="#444444" d="M43.974 0.273h-3.943v13.429l7.066 0.007v-1.051h-5.197v-5.647h4.638v-0.941h-4.638v-4.826l5.047-0.004v-0.967z"></path>
<path fill="#444444" d="M69.478 12.82l1.091-0.012c1.228 0 2.052-0.117 2.469-0.353 0.937-0.521 1.405-1.389 1.405-2.607 0-1.955-1.255-2.933-3.765-2.933-0.228 0-1.2 0.016-1.2 0.016v5.889zM69.47 6.096c0 0 1.868 0.010 2.395-0.109 0.663-0.144 1.18-0.446 1.547-0.906 0.368-0.459 0.553-1.008 0.553-1.644 0-0.818-0.32-1.455-0.955-1.91-0.546-0.373-1.241-0.559-2.088-0.559-0.417 0-1.453 0.004-1.453 0.004v5.124zM67.475 0.164c1.636 0 4.832 0.027 5.415 0.082 0.807 0.1 1.418 0.291 1.828 0.573 0.854 0.582 1.282 1.364 1.282 2.345 0 1.573-1.32 2.755-3.266 3.227 1.182 0.119 2.479 0.61 3.089 1.301 0.519 0.591 0.777 1.291 0.777 2.1 0 1.454-0.664 2.542-1.992 3.261-0.772 0.418-1.813 0.626-3.124 0.626l-4.009 0.029z"></path>
<path fill="#444444" d="M89.224 2.728l2.114 4.87h-4.16l2.046-4.87zM89.332 0l-6.041 13.708h1.441l2.050-5.129h4.965l2.139 5.129h2.241l-5.879-13.708h-0.915z"></path>
<path fill="#444444" d="M126.159 7.052l-0.055 0.067v6.589h-1.867c0-2.719-0.007-13.559-0.007-13.559h1.887l0.001 6.302c0 0 6.362-5.949 6.761-6.302h1.46c0 0-1.455 1.323-3.257 3.042-2.063 1.982-3.167 3.056-3.176 3.066l5.399 5.963c1.296 1.292 1.83 1.864 2.895 2.694 0 0-2.263-0.087-2.829-0.437-1.036-0.642-7.213-7.425-7.213-7.425z"></path>
<path fill="#444444" d="M114.014 0.070v10.282l-9.697-10.282h-0.709v13.639h1.076v-10.134l9.739 10.257h0.682v-13.762z"></path>
<path fill="#444444" d="M4.392 14.897h-0.222c0.13-0.136 0.193-0.339 0.222-1.197v1.197z"></path>
<path fill="#444444" d="M6.315 13.702c0.029 0.857 0.092 1.061 0.222 1.197h-0.222v-1.197z"></path>
<path fill="#444444" d="M88.345 29.454c0.117 0.122 0.249 0.251 0.393 0.388 0.243 0.226 0.606 0.601 1.087 1.124 0.416 0.456 0.702 0.777 0.856 0.964 0.071-0.011 0.112-0.017 0.124-0.017 0.015 0 0.062 0.005 0.145 0.017-0.022-0.368-0.032-1.063-0.032-2.083 0-1.485 0.043-2.601 0.129-3.347-0.133 0.032-0.243 0.049-0.333 0.049-0.086 0-0.185-0.017-0.295-0.049 0.066 0.749 0.102 2.007 0.102 3.772v0.284c-1.227-1.27-2.127-2.205-2.702-2.808-0.418-0.441-0.707-0.757-0.859-0.948l-0.265-0.301c-0.090 0.015-0.144 0.022-0.161 0.022-0.019 0-0.058-0.007-0.118-0.022v0.93c0 0.086 0.003 0.404 0.010 0.95 0.007 0.547 0.012 0.876 0.012 0.982 0 1.013-0.034 1.851-0.104 2.519 0.126-0.031 0.226-0.049 0.302-0.049 0.097 0 0.205 0.018 0.328 0.049-0.083-1.42-0.124-2.59-0.124-3.509v-0.49l1.505 1.572zM78.6 27.356c0.369-0.373 0.841-0.559 1.409-0.559 0.317 0 0.617 0.064 0.904 0.194 0.356 0.158 0.627 0.396 0.819 0.715 0.229 0.384 0.344 0.879 0.344 1.485 0 0.778-0.193 1.385-0.576 1.821s-0.887 0.654-1.512 0.654c-0.603 0-1.094-0.218-1.472-0.656s-0.568-1.027-0.568-1.77c0.001-0.818 0.218-1.446 0.652-1.884zM77.856 27.227c-0.527 0.504-0.791 1.178-0.791 2.016 0 0.847 0.271 1.517 0.813 2.012 0.541 0.495 1.238 0.743 2.093 0.743 0.904 0 1.632-0.275 2.185-0.823 0.534-0.524 0.801-1.199 0.801-2.024 0-0.84-0.282-1.505-0.85-1.997-0.535-0.459-1.22-0.688-2.055-0.688-0.936 0.001-1.668 0.253-2.196 0.76zM71.975 31.155c-0.352 0.246-0.886 0.37-1.603 0.37-0.287 0-0.564-0.015-0.829-0.044-0.015-0.513-0.022-1.295-0.022-2.345 0-0.884 0.013-1.621 0.037-2.213 0.219-0.019 0.445-0.026 0.678-0.026 0.42 0 0.732 0.019 0.936 0.053 0.349 0.055 0.641 0.171 0.883 0.35 0.52 0.396 0.779 1.013 0.779 1.851 0.002 0.93-0.285 1.597-0.859 2.003zM72.847 27.114c-0.329-0.266-0.722-0.433-1.179-0.499-0.301-0.052-0.857-0.076-1.668-0.076-0.415 0-0.84-0.005-1.27-0.017 0.039 0.735 0.059 1.491 0.059 2.267 0 1.173-0.027 2.204-0.086 3.093 0.388-0.018 0.663-0.026 0.825-0.026 0.078 0 0.298 0.004 0.661 0.014 0.363 0.008 0.553 0.014 0.571 0.014 0.832 0 1.515-0.226 2.051-0.677 0.587-0.51 0.883-1.225 0.883-2.142-0.001-0.851-0.284-1.502-0.847-1.95zM62.43 29.454c0.118 0.122 0.25 0.251 0.393 0.388 0.244 0.226 0.606 0.601 1.087 1.124 0.416 0.456 0.702 0.777 0.856 0.964 0.072-0.011 0.112-0.017 0.124-0.017 0.015 0 0.062 0.005 0.145 0.017-0.022-0.368-0.032-1.063-0.032-2.083 0-1.485 0.043-2.601 0.129-3.347-0.133 0.032-0.244 0.049-0.333 0.049-0.086 0-0.185-0.017-0.296-0.049 0.067 0.749 0.102 2.007 0.102 3.772v0.284c-1.227-1.27-2.127-2.205-2.701-2.808-0.419-0.441-0.707-0.757-0.86-0.948l-0.264-0.301c-0.090 0.015-0.144 0.022-0.162 0.022s-0.057-0.007-0.118-0.022v0.93c0 0.086 0.003 0.404 0.010 0.95 0.007 0.547 0.011 0.876 0.011 0.982 0 1.013-0.034 1.851-0.103 2.519 0.126-0.031 0.226-0.049 0.301-0.049 0.098 0 0.207 0.018 0.329 0.049-0.083-1.42-0.123-2.59-0.123-3.509v-0.49l1.506 1.572zM52.685 27.356c0.369-0.373 0.84-0.559 1.409-0.559 0.316 0 0.617 0.064 0.904 0.194 0.356 0.158 0.628 0.396 0.819 0.715 0.229 0.384 0.343 0.879 0.343 1.485 0 0.778-0.192 1.385-0.575 1.821-0.384 0.436-0.888 0.654-1.512 0.654-0.603 0-1.094-0.218-1.472-0.656-0.379-0.438-0.568-1.027-0.568-1.77 0-0.818 0.217-1.446 0.651-1.884zM51.942 27.227c-0.527 0.504-0.791 1.178-0.791 2.016 0 0.847 0.271 1.517 0.813 2.012s1.239 0.743 2.093 0.743c0.904 0 1.632-0.275 2.185-0.823 0.534-0.524 0.802-1.199 0.802-2.024 0-0.84-0.283-1.505-0.85-1.997-0.535-0.459-1.22-0.688-2.056-0.688-0.936 0.001-1.669 0.253-2.196 0.76zM46.125 26.533c-0.183 0.031-0.345 0.049-0.485 0.049-0.114 0-0.254-0.018-0.419-0.049 0.043 0.886 0.064 1.729 0.064 2.529 0 1.137-0.023 2.077-0.070 2.82 0.559-0.031 0.99-0.049 1.291-0.049 0.108 0 0.664 0.018 1.668 0.049-0.018-0.083-0.026-0.169-0.026-0.258 0-0.078 0.008-0.164 0.026-0.258-0.355 0.062-0.819 0.092-1.393 0.092-0.233 0-0.474-0.006-0.721-0.017 0-1.955 0.022-3.591 0.064-4.908z"></path>
<path fill="#444444" d="M99.391 28.946h10.572v0.519h-10.572v-0.519z"></path>
<path fill="#444444" d="M25.823 28.946h10.571v0.519h-10.571v-0.519z"></path>
</svg>
