<?xml version="1.0" encoding="utf-8"?>
<!-- Generator: Adobe Illustrator 16.0.0, SVG Export Plug-In . SVG Version: 6.00 Build 0)  -->
<!DOCTYPE svg PUBLIC "-//W3C//DTD SVG 1.1//EN" "http://www.w3.org/Graphics/SVG/1.1/DTD/svg11.dtd">
<svg version="1.1" id="Layer_1" xmlns="http://www.w3.org/2000/svg" xmlns:xlink="http://www.w3.org/1999/xlink" x="0px" y="0px"
	 width="136.2px" height="14.914px" viewBox="0 0 136.2 14.914" enable-background="new 0 0 136.2 14.914" xml:space="preserve">
<path fill="#444444" d="M6.315,14.897H4.392V13.7c0,0,0-4.672,0-12.446H0V0.15h10.529v1.105H6.315V14.897z"/>
<path fill="#444444" d="M29.035,0.149v5.788h-7.52V0.164h-1.896v13.544h1.896V6.99h7.516v6.718h1.9V0.149H29.035z"/>
<path fill="#444444" d="M43.974,0.273h-3.943v13.429l7.066,0.007v-1.051H41.9V7.011h4.638V6.07H41.9V1.244l5.047-0.004V0.273H43.974
	z"/>
<path fill="#444444" d="M69.479,12.82l1.09-0.012c1.229,0,2.053-0.117,2.47-0.353c0.937-0.521,1.405-1.389,1.405-2.607
	c0-1.955-1.256-2.933-3.766-2.933c-0.228,0-1.199,0.016-1.199,0.016V12.82z M69.471,6.096c0,0,1.867,0.01,2.395-0.109
	c0.662-0.144,1.18-0.446,1.547-0.906c0.367-0.459,0.553-1.008,0.553-1.644c0-0.818-0.32-1.455-0.955-1.91
	c-0.546-0.373-1.24-0.559-2.088-0.559c-0.417,0-1.453,0.004-1.453,0.004v5.124H69.471z M67.475,0.164
	c1.636,0,4.832,0.027,5.416,0.082c0.807,0.1,1.418,0.291,1.827,0.573C75.572,1.401,76,2.183,76,3.164
	c0,1.573-1.32,2.755-3.266,3.227c1.182,0.119,2.479,0.61,3.088,1.301c0.52,0.591,0.777,1.291,0.777,2.1
	c0,1.454-0.664,2.542-1.992,3.261c-0.771,0.418-1.812,0.626-3.123,0.626l-4.009,0.029V0.164z"/>
<path fill="#444444" d="M89.225,2.728l2.113,4.87h-4.16L89.225,2.728z M89.332,0l-6.041,13.708h1.441l2.05-5.129h4.965l2.14,5.129
	h2.24L90.248,0H89.332L89.332,0z"/>
<path fill="#444444" d="M126.159,7.052l-0.056,0.067v6.589h-1.867c0-2.719-0.006-13.559-0.006-13.559h1.887l0.001,6.302
	c0,0,6.362-5.949,6.761-6.302h1.46c0,0-1.455,1.323-3.257,3.042c-2.062,1.982-3.167,3.056-3.176,3.066l5.398,5.963
	c1.297,1.292,1.83,1.864,2.896,2.694c0,0-2.263-0.087-2.829-0.437C132.335,13.835,126.158,7.052,126.159,7.052L126.159,7.052z"/>
<path fill="#444444" d="M114.014,0.07v10.282L104.316,0.07h-0.709v13.639h1.076V3.575l9.739,10.257h0.683V0.07H114.014z"/>
<path fill="#444444" d="M4.392,14.897H4.17c0.13-0.136,0.193-0.339,0.222-1.197V14.897z"/>
<path fill="#444444" d="M6.315,13.702c0.029,0.857,0.092,1.061,0.222,1.197H6.315V13.702z"/>
</svg>
