<?xml version="1.0" encoding="utf-8"?>
<!-- Generated by IcoMoon.io -->
<!DOCTYPE svg PUBLIC "-//W3C//DTD SVG 1.1//EN" "http://www.w3.org/Graphics/SVG/1.1/DTD/svg11.dtd">
<svg version="1.1" xmlns="http://www.w3.org/2000/svg" xmlns:xlink="http://www.w3.org/1999/xlink" width="39" height="32" viewBox="0 0 39 32">
<path fill="#444444" d="M26.712 0.003c0.369 0 0.737 0 1.106 0 0.104 0.044 0.216 0.030 0.324 0.042 1.885 0.226 3.507 0.996 4.847 2.346 0.115 0.116 0.223 0.148 0.382 0.114 1.623-0.349 3.156-0.93 4.603-1.741 0.075-0.042 0.164-0.152 0.238-0.087 0.067 0.060-0.018 0.17-0.049 0.253-0.629 1.663-1.684 2.986-3.169 3.966-0.049 0.033-0.117 0.049-0.139 0.129 0.029 0 0.051 0.002 0.072-0 1.079-0.132 2.129-0.385 3.155-0.741 0.429-0.149 0.851-0.32 1.276-0.481 0 0.012 0 0.023 0 0.035-0.043 0.053-0.091 0.104-0.13 0.16-1.028 1.478-2.257 2.761-3.703 3.833-0.129 0.096-0.181 0.201-0.178 0.362 0.016 0.979 0.003 1.956-0.092 2.932-0.194 2.001-0.642 3.942-1.339 5.824-1.263 3.41-3.164 6.409-5.798 8.932-0.641 0.614-1.314 1.191-2.025 1.721-2.118 1.579-4.446 2.738-6.986 3.466-1.655 0.475-3.342 0.762-5.062 0.867-0.326 0.020-0.656-0.008-0.98 0.059-0.438 0-0.875 0-1.313 0-0.062-0.010-0.124-0.027-0.186-0.028-0.732-0.012-1.459-0.079-2.184-0.174-3.28-0.43-6.321-1.529-9.13-3.274-0.054-0.034-0.123-0.056-0.158-0.15 2.118 0.231 4.188 0.070 6.223-0.5 2.037-0.571 3.891-1.502 5.55-2.819-0.202-0.039-0.397-0.050-0.59-0.071-0.2-0.022-0.401-0.044-0.598-0.085-3.020-0.628-5.082-2.385-6.192-5.261-0.072-0.187-0.044-0.221 0.15-0.187 0.865 0.148 1.73 0.14 2.595 0.001 0.234-0.038 0.465-0.093 0.723-0.145-0.085-0.082-0.158-0.082-0.223-0.098-0.584-0.143-1.147-0.346-1.682-0.619-1.719-0.878-2.984-2.194-3.775-3.956-0.449-1-0.686-2.050-0.682-3.149 0.001-0.193 0.026-0.209 0.177-0.131 0.826 0.426 1.698 0.709 2.619 0.838 0.246 0.035 0.493 0.067 0.758 0.056-0.021-0.034-0.027-0.051-0.039-0.061-0.035-0.029-0.073-0.056-0.11-0.083-1.22-0.889-2.129-2.026-2.717-3.417-0.534-1.261-0.712-2.577-0.589-3.938 0.098-1.082 0.418-2.096 0.93-3.051 0.112-0.21 0.129-0.211 0.276-0.032 0.416 0.508 0.859 0.993 1.321 1.459 0.783 0.789 1.617 1.523 2.506 2.193 2.57 1.935 5.418 3.277 8.549 4.022 1.291 0.307 2.601 0.486 3.924 0.58 0.177 0.013 0.168-0.075 0.143-0.202-0.28-1.425-0.235-2.841 0.26-4.207 1.068-2.943 3.153-4.74 6.227-5.373 0.292-0.060 0.591-0.085 0.887-0.126z"></path>
</svg>
