<?xml version="1.0" encoding="utf-8"?>
<!-- Generated by IcoMoon.io -->
<!DOCTYPE svg PUBLIC "-//W3C//DTD SVG 1.1//EN" "http://www.w3.org/Graphics/SVG/1.1/DTD/svg11.dtd">
<svg version="1.1" xmlns="http://www.w3.org/2000/svg" xmlns:xlink="http://www.w3.org/1999/xlink" width="32" height="32" viewBox="0 0 32 32">
<path d="M15.984 31.971c-8.777 0.001-16.002-7.146-15.955-16.067 0.046-8.772 7.201-15.927 16.071-15.874 8.763 0.052 15.881 7.181 15.871 16-0.010 8.803-7.165 15.941-15.987 15.941zM4.649 15.198c0.907 0 1.814 0 2.722 0 0.333 0 0.333-0 0.349-0.336 0.001-0.019 0.001-0.038 0.001-0.057 0.009-0.648 0.085-1.29 0.17-1.93 0.171-1.284 0.449-2.546 0.843-3.781 0.050-0.155 0.035-0.209-0.145-0.209-1.624 0.003-3.248 0-4.872-0.008-0.172-0.001-0.261 0.061-0.34 0.208-0.506 0.942-0.917 1.922-1.21 2.951-0.271 0.954-0.45 1.924-0.511 2.915-0.015 0.245-0.005 0.247 0.234 0.248 0.92 0.001 1.84 0 2.76 0zM27.33 15.198c0.926 0 1.853 0 2.779-0 0.24-0 0.249-0.004 0.233-0.248-0.019-0.291-0.044-0.582-0.083-0.87-0.241-1.758-0.786-3.417-1.628-4.98-0.086-0.16-0.183-0.225-0.369-0.224-1.611 0.010-3.223 0.009-4.834 0.012-0.222 0-0.222 0.001-0.162 0.206 0.027 0.091 0.055 0.182 0.082 0.273 0.365 1.216 0.63 2.454 0.781 3.716 0.072 0.598 0.136 1.196 0.152 1.799 0.008 0.316 0.017 0.317 0.327 0.317 0.907 0 1.815-0 2.722-0zM27.328 16.802c-0.933 0-1.865 0.003-2.798-0.003-0.157-0.001-0.231 0.041-0.24 0.208-0.026 0.474-0.049 0.95-0.099 1.422-0.162 1.523-0.46 3.018-0.929 4.478-0.051 0.157-0.031 0.209 0.147 0.209 1.624-0.003 3.248-0 4.872 0.008 0.161 0.001 0.251-0.052 0.328-0.193 0.524-0.955 0.935-1.957 1.231-3.003 0.266-0.941 0.443-1.9 0.501-2.878 0.014-0.244 0.005-0.246-0.236-0.246-0.926-0.001-1.852-0-2.779-0zM4.667 16.802c-0.914 0-1.827-0-2.741 0-0.278 0-0.283 0.001-0.272 0.267 0.014 0.336 0.061 0.668 0.109 1.001 0.248 1.725 0.797 3.349 1.634 4.878 0.077 0.141 0.174 0.174 0.32 0.174 1.618-0.006 3.235-0.007 4.853-0.010 0.224-0 0.223-0.001 0.153-0.224-0.027-0.085-0.052-0.17-0.078-0.255-0.391-1.315-0.668-2.653-0.817-4.018-0.058-0.529-0.101-1.059-0.123-1.591-0.008-0.188-0.090-0.227-0.26-0.226-0.926 0.007-1.852 0.003-2.779 0.003zM15.197 19.969c0-0.964 0-1.928-0-2.893-0-0.274-0.001-0.274-0.274-0.274-1.795-0-3.591-0-5.386-0-0.038 0-0.076 0.002-0.114 0-0.102-0.003-0.145 0.032-0.136 0.147 0.030 0.404 0.051 0.809 0.090 1.213 0.156 1.629 0.505 3.215 1.033 4.763 0.050 0.145 0.12 0.197 0.272 0.197 1.427-0.005 2.855-0.006 4.282 0.001 0.185 0.001 0.239-0.063 0.237-0.242-0.007-0.971-0.003-1.941-0.003-2.912zM19.774 16.802c-0.901 0-1.802-0-2.702 0-0.27 0-0.271 0.001-0.271 0.278-0 1.028-0 2.055-0 3.083 0 0.914 0.001 1.827-0.001 2.741-0 0.13 0.017 0.218 0.182 0.218 1.459-0.004 2.918-0.003 4.377-0 0.123 0 0.185-0.049 0.219-0.163 0.047-0.158 0.105-0.312 0.155-0.469 0.56-1.767 0.887-3.576 0.971-5.429 0.014-0.314-0.017-0.256-0.245-0.257-0.894-0.003-1.789-0.001-2.683-0.001zM15.197 12.050c0-0.971 0-1.941-0-2.912-0-0.254-0.003-0.257-0.253-0.258-1.3-0-2.601-0.006-3.901 0.002-0.694 0.004-0.527-0.127-0.744 0.536-0.59 1.805-0.922 3.658-1.008 5.556-0.008 0.185 0.034 0.227 0.207 0.226 1.814-0.005 3.629-0.003 5.443-0.003 0.251 0 0.255-0.004 0.255-0.255 0-0.964 0-1.928 0-2.893zM16.801 12.043c0 0.964-0 1.928 0 2.892 0 0.262 0.001 0.263 0.266 0.263 1.256 0 2.512 0 3.768 0 0.565 0 1.129 0 1.694-0 0.095-0 0.185 0.016 0.179-0.142-0.017-0.475-0.050-0.95-0.103-1.421-0.174-1.547-0.505-3.061-1.007-4.537-0.058-0.171-0.139-0.222-0.312-0.221-1.408 0.006-2.816 0.003-4.224 0.004-0.259 0-0.26 0.001-0.26 0.27-0 0.964-0 1.928-0 2.892zM4.572 7.236c0.086 0.048 0.15 0.032 0.212 0.032 1.453 0.001 2.906-0.003 4.359 0.006 0.195 0.001 0.289-0.059 0.366-0.239 0.756-1.76 1.747-3.377 2.974-4.849 0.032-0.039 0.090-0.071 0.063-0.156-3.259 0.814-5.886 2.577-7.974 5.206zM12.558 29.973c0.003-0.085-0.036-0.113-0.063-0.145-1.241-1.485-2.238-3.121-3.003-4.898-0.066-0.153-0.148-0.203-0.312-0.202-1.472 0.006-2.944 0.003-4.416 0.004-0.055 0-0.113-0.017-0.188 0.034 2.079 2.627 4.71 4.387 7.982 5.207zM27.451 24.731c-0.125 0-0.195 0-0.264 0-1.434 0-2.868 0.005-4.302-0.005-0.216-0.002-0.322 0.062-0.408 0.264-0.66 1.541-1.508 2.973-2.54 4.296-0.169 0.217-0.34 0.433-0.509 0.649 3.281-0.778 5.913-2.539 8.024-5.203zM19.431 2.069c0.016 0.026 0.030 0.054 0.049 0.077 1.257 1.498 2.262 3.15 3.035 4.945 0.061 0.141 0.14 0.182 0.287 0.181 1.478-0.005 2.957-0.003 4.435-0.004 0.054-0 0.113 0.019 0.184-0.036-2.080-2.623-4.71-4.386-7.99-5.163zM15.197 4.48c0-0.856 0-1.713-0.001-2.569-0-0.061 0.029-0.146-0.029-0.177-0.069-0.037-0.105 0.050-0.148 0.090-1.606 1.499-2.849 3.261-3.794 5.239-0.098 0.204-0.096 0.206 0.125 0.206 1.205 0 2.411-0.003 3.616 0.004 0.188 0.001 0.236-0.064 0.234-0.242-0.007-0.85-0.003-1.7-0.003-2.55zM15.197 27.541c0-0.856-0.004-1.712 0.003-2.568 0.001-0.174-0.039-0.246-0.231-0.245-1.211 0.008-2.422 0.006-3.633 0.002-0.163-0.001-0.2 0.030-0.124 0.188 0.951 1.989 2.2 3.76 3.816 5.266 0.039 0.036 0.073 0.11 0.136 0.081 0.061-0.028 0.033-0.103 0.033-0.156 0.002-0.856 0.001-1.712 0.001-2.568zM16.801 4.459c0 0.857 0.004 1.714-0.003 2.57-0.002 0.177 0.044 0.244 0.233 0.243 1.206-0.008 2.412-0.004 3.618-0.004 0.212-0 0.218-0.007 0.129-0.194-0.946-1.986-2.193-3.754-3.805-5.256-0.040-0.037-0.074-0.11-0.136-0.084s-0.034 0.102-0.035 0.155c-0.002 0.857-0.001 1.714-0.001 2.57zM16.801 27.521c0 0.856-0.001 1.712 0.001 2.568 0 0.060-0.032 0.144 0.032 0.174 0.068 0.032 0.105-0.053 0.149-0.093 1.605-1.498 2.848-3.259 3.791-5.237 0.095-0.2 0.095-0.202-0.131-0.202-1.198-0-2.397-0-3.595 0-0.246 0-0.247 0.001-0.247 0.259-0 0.843-0 1.687-0 2.53z" fill="rgb(68, 68, 68)"></path>
</svg>
