<?xml version="1.0" encoding="utf-8"?>
<!-- Generated by IcoMoon.io -->
<!DOCTYPE svg PUBLIC "-//W3C//DTD SVG 1.1//EN" "http://www.w3.org/Graphics/SVG/1.1/DTD/svg11.dtd">
<svg version="1.1" xmlns="http://www.w3.org/2000/svg" xmlns:xlink="http://www.w3.org/1999/xlink" width="28" height="32" viewBox="0 0 28 32">
<path fill="#444444" d="M27.51 21.67c0 0.788 0 1.576 0 2.365-0.020 0.045-0.020 0.094-0.021 0.142-0.016 0.699-0.065 1.395-0.122 2.092-0.070 0.857-0.181 1.709-0.296 2.561-0.092 0.679-0.356 1.278-0.82 1.777-0.642 0.692-1.448 1.051-2.39 1.099-0.67 0.035-1.339 0.068-2.009 0.099-0.895 0.041-1.789 0.091-2.684 0.115-0.827 0.022-1.654 0.057-2.482 0.055-0.155-0-0.313-0.009-0.468 0.023-1.689 0-3.378 0-5.067 0-0.167-0.030-0.336-0.023-0.504-0.024-0.884-0.004-1.767-0.037-2.65-0.065-0.582-0.018-1.164-0.034-1.746-0.062-0.862-0.041-1.724-0.1-2.586-0.138-0.744-0.032-1.408-0.267-1.992-0.726-0.643-0.505-1.052-1.158-1.186-1.965-0.159-0.963-0.264-1.933-0.34-2.907-0.062-0.797-0.11-1.594-0.12-2.394-0.002-0.143 0.020-0.29-0.023-0.431 0-0.298 0-0.595 0-0.893 0.007-0.035 0.018-0.070 0.019-0.106 0.008-0.394 0.004-0.788 0.030-1.181 0.030-0.465 0.044-0.931 0.080-1.395 0.053-0.689 0.12-1.377 0.213-2.062 0.055-0.406 0.082-0.819 0.191-1.214 0.314-1.142 1.063-1.882 2.162-2.286 0.43-0.158 0.882-0.171 1.33-0.197 0.617-0.037 1.235-0.070 1.853-0.096 0.851-0.037 1.702-0.071 2.553-0.097 0.614-0.018 1.229-0.032 1.844-0.046 0.582-0.014 1.166-0.024 1.748-0.025 1.343-0.002 2.686-0.018 4.028 0.014 0.751 0.018 1.502 0.030 2.254 0.047 0.86 0.019 1.718 0.059 2.578 0.084 0.204 0.006 0.409 0.016 0.614 0.026 0.594 0.028 1.187 0.060 1.781 0.093 0.293 0.016 0.587 0.026 0.877 0.061 0.844 0.103 1.552 0.478 2.122 1.108 0.386 0.427 0.652 0.922 0.746 1.49 0.267 1.6 0.413 3.212 0.462 4.832 0.002 0.076-0.005 0.153 0.024 0.226zM14.321 22.6c0 1.689-0 3.377 0 5.066 0 0.249 0.003 0.499-0.001 0.748-0.002 0.099 0.037 0.137 0.135 0.136 0.438-0.002 0.877-0.002 1.315-0 0.093 0 0.129-0.038 0.127-0.131-0.004-0.189-0.002-0.378-0-0.567 0-0.038-0.019-0.091 0.025-0.109s0.067 0.033 0.094 0.060c0.223 0.225 0.439 0.458 0.717 0.623 0.401 0.238 0.826 0.322 1.273 0.183 0.498-0.154 0.74-0.545 0.86-1.020 0.139-0.546 0.138-1.109 0.139-1.666 0.004-1.371 0.019-2.742-0.011-4.112-0.008-0.37-0.031-0.74-0.117-1.101-0.092-0.381-0.261-0.722-0.61-0.933-0.414-0.25-0.85-0.233-1.288-0.065-0.374 0.144-0.661 0.406-0.928 0.694-0.037 0.040-0.062 0.119-0.123 0.095-0.059-0.023-0.029-0.1-0.029-0.153-0.002-1.17-0.001-2.34-0.001-3.51 0-0.178-0-0.178-0.183-0.178-0.402-0-0.804-0-1.206 0-0.185 0-0.185 0-0.185 0.188-0 1.918-0 3.836-0 5.753zM20.302 24.12c-0.003 0-0.006 0-0.009 0 0 0.523-0.003 1.045 0.001 1.568 0.003 0.403 0.031 0.803 0.125 1.197 0.183 0.768 0.624 1.32 1.361 1.62 0.353 0.144 0.724 0.173 1.101 0.165 1.072-0.023 1.972-0.781 2.15-1.83 0.069-0.405 0.051-0.817 0.055-1.227 0.001-0.073-0.037-0.099-0.105-0.099-0.462 0.001-0.925 0.001-1.387-0-0.083-0-0.116 0.038-0.116 0.117 0.001 0.141 0.006 0.282-0.002 0.422-0.015 0.248 0.003 0.499-0.090 0.738-0.11 0.278-0.306 0.437-0.608 0.453-0.3 0.015-0.558-0.062-0.723-0.338-0.112-0.188-0.161-0.395-0.174-0.609-0.035-0.562-0.008-1.125-0.015-1.688-0.002-0.209 0-0.21 0.205-0.21 0.949-0 1.898 0 2.847-0 0.163 0 0.17-0.008 0.17-0.17 0-0.579 0.005-1.158-0.002-1.737-0.004-0.337-0.032-0.674-0.093-1.008-0.108-0.59-0.382-1.079-0.86-1.447-0.512-0.394-1.102-0.494-1.724-0.429-0.894 0.094-1.539 0.549-1.883 1.39-0.168 0.411-0.216 0.849-0.222 1.289-0.009 0.611-0.002 1.222-0.002 1.833zM12.881 24.131c0-1.403 0-2.806 0-4.21 0-0.040-0.001-0.080-0.001-0.121 0.002-0.071-0.033-0.102-0.103-0.102-0.45 0.001-0.901 0.001-1.351 0-0.078-0-0.108 0.040-0.108 0.112 0 0.048-0.001 0.097-0.001 0.145 0 2.059-0.004 4.117 0.005 6.176 0.001 0.252-0.046 0.458-0.225 0.642-0.22 0.226-0.443 0.436-0.774 0.47-0.22 0.022-0.363-0.081-0.422-0.292-0.039-0.137-0.038-0.278-0.038-0.419 0-2.223 0-4.447-0-6.67 0-0.16-0.004-0.164-0.161-0.164-0.414-0-0.828-0-1.242-0-0.169 0-0.171 0.002-0.171 0.167-0 0.728-0.002 1.456 0 2.183 0.007 1.676-0.018 3.353 0.014 5.029 0.006 0.322 0.032 0.643 0.138 0.951 0.107 0.313 0.325 0.515 0.643 0.597 0.456 0.118 0.876 0.011 1.269-0.23 0.317-0.195 0.596-0.436 0.839-0.717 0.024-0.028 0.052-0.074 0.098-0.051 0.035 0.018 0.028 0.064 0.028 0.099 0.001 0.213 0 0.426 0.001 0.639 0.001 0.172 0.011 0.182 0.187 0.182 0.398 0.001 0.796 0 1.194 0 0.176-0 0.181-0.006 0.181-0.184 0-1.411 0-2.822 0-4.234zM6.085 23.419c0-1.644-0-3.289 0-4.933 0-0.186 0.005-0.191 0.187-0.191 0.523-0 1.045 0 1.568-0.001 0.161-0 0.174-0.013 0.175-0.171 0.001-0.434 0.001-0.868 0-1.303-0-0.151-0.011-0.162-0.168-0.162-1.745-0-3.49-0-5.235 0-0.164 0-0.174 0.009-0.174 0.167-0.001 0.43-0.001 0.86 0 1.291 0 0.165 0.012 0.177 0.18 0.177 0.511 0.001 1.021-0 1.532 0.001 0.189 0 0.193 0.005 0.194 0.198 0 0.973 0 1.946 0 2.919 0 2.312 0 4.624 0 6.936 0 0.197 0.005 0.202 0.204 0.202 0.438 0 0.877 0 1.315 0 0.221 0 0.222-0 0.222-0.221 0-1.637 0-3.273 0-4.909z"></path>
<path fill="#444444" d="M8.459 4.602c0.055-0.092 0.067-0.184 0.085-0.272 0.125-0.605 0.311-1.195 0.466-1.792 0.206-0.795 0.413-1.591 0.616-2.387 0.025-0.097 0.067-0.137 0.172-0.136 0.511 0.005 1.021 0.002 1.532 0.002 0.145 0 0.168 0.032 0.124 0.175-0.259 0.86-0.52 1.719-0.777 2.579-0.164 0.549-0.322 1.101-0.487 1.65-0.254 0.846-0.512 1.69-0.77 2.535-0.037 0.12-0.053 0.241-0.053 0.367 0 1.488-0.002 2.976-0.004 4.463-0 0.206-0.001 0.207-0.208 0.207-0.479 0-0.957 0-1.436-0-0.188-0-0.192-0.004-0.192-0.186 0-0.796 0.001-1.593 0-2.389-0-0.72-0.003-1.439-0.003-2.159-0-0.13-0.035-0.254-0.062-0.38-0.172-0.798-0.404-1.58-0.656-2.356-0.242-0.744-0.49-1.486-0.74-2.227-0.239-0.707-0.486-1.411-0.729-2.116-0.054-0.157-0.048-0.164 0.114-0.165 0.535-0.001 1.070 0.002 1.604-0.002 0.107-0.001 0.153 0.033 0.182 0.14 0.366 1.346 0.736 2.691 1.108 4.036 0.037 0.133 0.037 0.276 0.112 0.412z"></path>
<path fill="#444444" d="M20.598 11.083c-0.237 0.21-0.445 0.427-0.69 0.605-0.38 0.276-0.79 0.454-1.276 0.418-0.538-0.040-0.882-0.345-0.979-0.877-0.063-0.346-0.081-0.694-0.081-1.043 0-0.764 0.023-1.528 0.005-2.291-0.036-1.511-0.003-3.023-0.015-4.534-0-0.036-0-0.072 0-0.109 0.001-0.185 0.006-0.191 0.189-0.191 0.434-0.001 0.868-0.001 1.303 0 0.147 0 0.161 0.014 0.161 0.158-0 1.592-0.001 3.184-0.003 4.776-0.001 0.671-0.004 1.342-0.005 2.013-0 0.113 0.012 0.225 0.039 0.334 0.049 0.195 0.18 0.29 0.381 0.272 0.269-0.024 0.467-0.179 0.65-0.359 0.055-0.053 0.103-0.112 0.156-0.168 0.117-0.125 0.175-0.263 0.169-0.444-0.014-0.393 0.010-0.789-0.008-1.182-0.031-0.683-0.019-1.367-0.008-2.049 0.017-1.061 0.006-2.122 0.015-3.183 0.001-0.156 0.009-0.165 0.163-0.165 0.434-0.001 0.868-0.001 1.303 0 0.143 0 0.16 0.017 0.16 0.161 0.002 1.817 0.003 3.634 0.004 5.452 0.001 1.037 0.002 2.075 0.003 3.112 0 0.192-0 0.193-0.19 0.193-0.434 0-0.868-0.003-1.303 0.002-0.109 0.001-0.149-0.033-0.146-0.145 0.006-0.252 0.002-0.504 0.002-0.756z"></path>
<path fill="#444444" d="M11.483 7.531c0-0.647-0.021-1.296 0.006-1.942 0.023-0.546 0.106-1.090 0.405-1.569 0.369-0.59 0.899-0.939 1.592-1.032 0.495-0.066 0.982-0.030 1.437 0.188 0.708 0.339 1.105 0.92 1.253 1.681 0.066 0.34 0.098 0.683 0.098 1.029 0.001 1.222 0.008 2.445-0.004 3.667-0.005 0.475-0.080 0.95-0.313 1.372-0.406 0.738-1.036 1.147-1.887 1.189-0.338 0.017-0.675 0-1.001-0.11-0.753-0.255-1.22-0.779-1.436-1.533-0.114-0.4-0.157-0.811-0.155-1.227 0.002-0.571 0.001-1.142 0.001-1.713 0.001-0 0.002-0 0.003-0zM14.615 7.498c0-0.671 0.002-1.343-0.001-2.014-0.001-0.219-0.044-0.431-0.133-0.632-0.109-0.249-0.305-0.386-0.571-0.396-0.274-0.010-0.485 0.108-0.614 0.364-0.113 0.226-0.154 0.468-0.155 0.712-0.006 1.315-0.006 2.629 0 3.944 0.001 0.26 0.033 0.521 0.156 0.761 0.082 0.16 0.194 0.283 0.373 0.337 0.347 0.106 0.679-0.054 0.823-0.402 0.090-0.218 0.119-0.45 0.121-0.684 0.004-0.663 0.002-1.327 0.002-1.99z"></path>
<path fill="#444444" d="M15.896 24.107c0-0.836 0.003-1.672-0.003-2.508-0.001-0.143 0.040-0.238 0.156-0.325 0.198-0.148 0.403-0.261 0.657-0.265 0.256-0.005 0.436 0.117 0.555 0.335 0.088 0.161 0.125 0.339 0.145 0.518 0.019 0.167 0.026 0.336 0.027 0.505 0.002 1.162 0.002 2.323 0.001 3.485-0 0.301-0.008 0.603-0.102 0.893-0.139 0.427-0.476 0.589-0.903 0.444-0.159-0.054-0.293-0.148-0.422-0.251-0.080-0.064-0.114-0.142-0.113-0.25 0.005-0.86 0.002-1.72 0.003-2.58z"></path>
<path fill="#444444" d="M22.691 23.097c-0.229 0-0.458 0.001-0.687-0-0.062-0-0.127-0.003-0.125-0.091 0.013-0.441-0.048-0.885 0.051-1.321 0.072-0.318 0.222-0.578 0.573-0.659 0.394-0.091 0.736 0.086 0.887 0.46 0.089 0.22 0.113 0.451 0.121 0.684 0.008 0.261-0.003 0.522 0.004 0.783 0.003 0.114-0.045 0.148-0.149 0.146-0.225-0.004-0.45-0.001-0.675-0.001 0 0 0-0 0-0z"></path>
</svg>
